<svg xmlns="http://www.w3.org/2000/svg" viewBox="-3 0 341 72" width="341" height="72">
  <defs>
    <linearGradient id="sweep" x1="50%" y1="0%" x2="100%" y2="80%"><stop offset="0%" stop-color="#15803d" stop-opacity="0.55"/><stop offset="100%" stop-color="#15803d" stop-opacity="0"/></linearGradient>
    <radialGradient id="glow" cx="50%" cy="50%" r="50%"><stop offset="0%" stop-color="#15803d" stop-opacity="0.1"/><stop offset="100%" stop-color="#15803d" stop-opacity="0"/></radialGradient>
    <radialGradient id="dot" cx="50%" cy="50%" r="50%"><stop offset="0%" stop-color="#22c55e"/><stop offset="100%" stop-color="#15803d"/></radialGradient>
    <clipPath id="rc"><circle cx="24" cy="37" r="18"/></clipPath>
  </defs>
  <g transform="translate(24,37) scale(1.1) translate(-24,-37) translate(0,-3)">
    <circle cx="24" cy="37" r="21" fill="none" stroke="#15803d" stroke-width="5.5"/>
    <circle cx="24" cy="37" r="17.5" fill="url(#glow)"/>
    <circle cx="24" cy="37" r="12" fill="none" stroke="#15803d" stroke-width="1.5" opacity="0.4"/>
    <circle cx="24" cy="37" r="6" fill="none" stroke="#15803d" stroke-width="1.2" opacity="0.3"/>
    <line x1="24" y1="16" x2="24" y2="58" stroke="#15803d" stroke-width="1" opacity="0.25"/>
    <line x1="3" y1="37" x2="45" y2="37" stroke="#15803d" stroke-width="1" opacity="0.25"/>
    <g clip-path="url(#rc)"><path d="M24,37 L24,19 A18,18 0 0,1 39.6,29 Z" fill="url(#sweep)"/></g>
    <line x1="24" y1="37" x2="39.6" y2="29" stroke="#15803d" stroke-width="2" opacity="0.8"/>
    <circle cx="33" cy="26" r="2" fill="#16a34a" opacity="0.85"/><circle cx="33" cy="26" r="3.5" fill="#16a34a" opacity="0.2"/>
    <circle cx="18" cy="30" r="1.5" fill="#16a34a" opacity="0.5"/>
    <circle cx="24" cy="37" r="2.5" fill="url(#dot)"/><circle cx="24" cy="37" r="1" fill="#fff" opacity="0.7"/>
  </g>
  <text x="48" y="56" font-family="'DM Sans',sans-serif" font-weight="800" font-size="52" letter-spacing="-1.5">
    <tspan fill="#57534e">PERA</tspan><tspan fill="#57534e" font-size="46">-</tspan><tspan fill="#15803d">DSP</tspan>
  </text>
</svg>
